<svg width="88" height="72" viewBox="0 0 88 72" fill="none" xmlns="http://www.w3.org/2000/svg">
<rect width="88" height="72" rx="36" fill="#F4F2EF"/>
<path d="M46.75 46.5H40.75C35.32 46.5 33 44.18 33 38.75V32.75C33 27.32 35.32 25 40.75 25H46.75C52.18 25 54.5 27.32 54.5 32.75V38.75C54.5 44.18 52.18 46.5 46.75 46.5ZM40.75 26.5C36.14 26.5 34.5 28.14 34.5 32.75V38.75C34.5 43.36 36.14 45 40.75 45H46.75C51.36 45 53 43.36 53 38.75V32.75C53 28.14 51.36 26.5 46.75 26.5H40.75Z" fill="black"/>
<path d="M47.5 43.25C45.98 43.25 44.75 42.02 44.75 40.5V31.5C44.75 29.98 45.98 28.75 47.5 28.75C49.02 28.75 50.25 29.98 50.25 31.5V40.5C50.25 42.02 49.02 43.25 47.5 43.25ZM47.5 30.25C46.81 30.25 46.25 30.81 46.25 31.5V40.5C46.25 41.19 46.81 41.75 47.5 41.75C48.19 41.75 48.75 41.19 48.75 40.5V31.5C48.75 30.81 48.19 30.25 47.5 30.25Z" fill="black"/>
<path d="M40.5 43.25C38.98 43.25 37.75 42.02 37.75 40.5V37C37.75 35.48 38.98 34.25 40.5 34.25C42.02 34.25 43.25 35.48 43.25 37V40.5C43.25 42.02 42.02 43.25 40.5 43.25ZM40.5 35.75C39.81 35.75 39.25 36.31 39.25 37V40.5C39.25 41.19 39.81 41.75 40.5 41.75C41.19 41.75 41.75 41.19 41.75 40.5V37C41.75 36.31 41.19 35.75 40.5 35.75Z" fill="black"/>
</svg>
