<svg width="88" height="72" viewBox="0 0 88 72" fill="none" xmlns="http://www.w3.org/2000/svg">
<rect width="88" height="72" rx="36" fill="#F4F2EF"/>
<path d="M44.1596 35.62C44.1296 35.62 44.1096 35.62 44.0796 35.62C44.0296 35.61 43.9596 35.61 43.8996 35.62C40.9996 35.53 38.8096 33.25 38.8096 30.44C38.8096 27.58 41.1396 25.25 43.9996 25.25C46.8596 25.25 49.1896 27.58 49.1896 30.44C49.1796 33.25 46.9796 35.53 44.1896 35.62C44.1796 35.62 44.1696 35.62 44.1596 35.62ZM43.9996 26.75C41.9696 26.75 40.3096 28.41 40.3096 30.44C40.3096 32.44 41.8696 34.05 43.8596 34.12C43.9096 34.11 44.0496 34.11 44.1796 34.12C46.1396 34.03 47.6796 32.42 47.6896 30.44C47.6896 28.41 46.0296 26.75 43.9996 26.75Z" fill="black"/>
<path d="M44.1696 46.55C42.2096 46.55 40.2396 46.05 38.7496 45.05C37.3596 44.13 36.5996 42.87 36.5996 41.5C36.5996 40.13 37.3596 38.86 38.7496 37.93C41.7496 35.94 46.6096 35.94 49.5896 37.93C50.9696 38.85 51.7396 40.11 51.7396 41.48C51.7396 42.85 50.9796 44.12 49.5896 45.05C48.0896 46.05 46.1296 46.55 44.1696 46.55ZM39.5796 39.19C38.6196 39.83 38.0996 40.65 38.0996 41.51C38.0996 42.36 38.6296 43.18 39.5796 43.81C42.0696 45.48 46.2696 45.48 48.7596 43.81C49.7196 43.17 50.2396 42.35 50.2396 41.49C50.2396 40.64 49.7096 39.82 48.7596 39.19C46.2696 37.53 42.0696 37.53 39.5796 39.19Z" fill="black"/>
</svg>
