<svg width="88" height="72" viewBox="0 0 88 72" fill="none" xmlns="http://www.w3.org/2000/svg">
<rect width="88" height="72" rx="36" fill="#F4F2EF"/>
<path d="M49.79 46.75H38.21C35.47 46.75 33.25 44.52 33.25 41.78V34.37C33.25 33.01 34.09 31.3 35.17 30.46L40.56 26.26C42.18 25 44.77 24.94 46.45 26.12L52.63 30.45C53.82 31.28 54.75 33.06 54.75 34.51V41.79C54.75 44.52 52.53 46.75 49.79 46.75ZM41.48 27.44L36.09 31.64C35.38 32.2 34.75 33.47 34.75 34.37V41.78C34.75 43.69 36.3 45.25 38.21 45.25H49.79C51.7 45.25 53.25 43.7 53.25 41.79V34.51C53.25 33.55 52.56 32.22 51.77 31.68L45.59 27.35C44.45 26.55 42.57 26.59 41.48 27.44Z" fill="black"/>
<path d="M44 42.75C43.59 42.75 43.25 42.41 43.25 42V39C43.25 38.59 43.59 38.25 44 38.25C44.41 38.25 44.75 38.59 44.75 39V42C44.75 42.41 44.41 42.75 44 42.75Z" fill="black"/>
</svg>
