<svg width="24" height="24" viewBox="0 0 24 24" fill="none" xmlns="http://www.w3.org/2000/svg">
<path d="M14.75 22.5H8.75C3.32 22.5 1 20.18 1 14.75V8.75C1 3.32 3.32 1 8.75 1H14.75C20.18 1 22.5 3.32 22.5 8.75V14.75C22.5 20.18 20.18 22.5 14.75 22.5ZM8.75 2.5C4.14 2.5 2.5 4.14 2.5 8.75V14.75C2.5 19.36 4.14 21 8.75 21H14.75C19.36 21 21 19.36 21 14.75V8.75C21 4.14 19.36 2.5 14.75 2.5H8.75Z" fill="#7B7B7B"/>
<path d="M15.5 19.25C13.98 19.25 12.75 18.02 12.75 16.5V7.5C12.75 5.98 13.98 4.75 15.5 4.75C17.02 4.75 18.25 5.98 18.25 7.5V16.5C18.25 18.02 17.02 19.25 15.5 19.25ZM15.5 6.25C14.81 6.25 14.25 6.81 14.25 7.5V16.5C14.25 17.19 14.81 17.75 15.5 17.75C16.19 17.75 16.75 17.19 16.75 16.5V7.5C16.75 6.81 16.19 6.25 15.5 6.25Z" fill="#7B7B7B"/>
<path d="M8.5 19.25C6.98 19.25 5.75 18.02 5.75 16.5V13C5.75 11.48 6.98 10.25 8.5 10.25C10.02 10.25 11.25 11.48 11.25 13V16.5C11.25 18.02 10.02 19.25 8.5 19.25ZM8.5 11.75C7.81 11.75 7.25 12.31 7.25 13V16.5C7.25 17.19 7.81 17.75 8.5 17.75C9.19 17.75 9.75 17.19 9.75 16.5V13C9.75 12.31 9.19 11.75 8.5 11.75Z" fill="#7B7B7B"/>
</svg>
